<svg id="Layer_1" data-name="Layer 1" xmlns="http://www.w3.org/2000/svg" viewBox="0 0 268 95.11"><title>cander-logo</title><path d="M66.67,91C54.45,91,44.1,84.8,44.1,71.46S54.52,51.6,66.67,51.6c9.45,0,17.85,3.26,21.25,12.78L79.1,66.74c-1.95-5.42-7.15-7.5-12.43-7.5-7.78,0-13.26,4.1-13.26,12.29s5.76,11.88,13.26,11.88c5.63,0,10.83-1.88,12.64-7.78L88.2,78C85,88,76.32,91,66.67,91Z" transform="translate(-44.1 -39.45)"/><path d="M124.17,90.14V86c-4.31,3.61-9.24,5-15.63,5C98.27,91,90.7,88.27,90.7,79.52c0-7.36,5.69-11.32,15.9-11.32h17.57V66.6c0-5.9-6.74-7.36-11.32-7.36-6,0-10.28,1.11-12.29,5.35l-8.13-2.15c3.13-8.75,11.95-10.83,20.42-10.83,9.51,0,20.35,3.4,20.35,14.86V90.14h-9Zm-16.94-15.7c-3.19,0-7.29.35-7.29,4.58,0,3.82,4.72,4.38,7.57,4.38h2.71c9.1,0,14-3.13,14-9H107.23Z" transform="translate(-44.1 -39.45)"/><path d="M173.27,90.14V69.8c0-7.78-4.51-10.56-11.25-10.56-7.78,0-13.54,4.65-13.54,12.29V90.14h-9V52.5h9v4.72a20.07,20.07,0,0,1,14.58-5.63c11.74,0,19.24,4.93,19.24,18.13V90.14h-9Z" transform="translate(-44.1 -39.45)"/><path d="M207.72,51.6a20.93,20.93,0,0,1,15.07,5.76V39.45h9v50.7h-9V85.56C219,89.45,214.73,91,207.86,91c-11.74,0-21.18-5.76-21.18-19.58C186.68,57.85,196,51.6,207.72,51.6Zm1.74,31.81c7.29,0,13.33-4.31,13.33-11.88,0-7.78-5.76-12.29-13.33-12.29-7.78,0-13.4,4-13.4,12.29S202,83.41,209.46,83.41Z" transform="translate(-44.1 -39.45)"/><path d="M281,74.45H245.5c0.7,6.46,7.08,9.1,13.2,9.1,5.07,0,11.11-.76,13.4-6.11l8.47,2C277,89,267.86,91,258.7,91c-13.26,0-22.64-6.25-22.64-19.51,0-12.71,10.49-19.93,22.57-19.93,12.57,0,22.36,6.88,22.36,20v2.85Zm-9.86-6.25c-1.46-6.25-6.53-8.75-12.64-8.75-5.9,0-11.32,2.5-12.92,8.75h25.56Z" transform="translate(-44.1 -39.45)"/><path d="M310.09,59.93a10.34,10.34,0,0,0-3.82-.69c-6.67,0-11.67,2.85-11.67,10.56V90.14h-9V52.5h9v4.44a16,16,0,0,1,12.22-5.49,19.44,19.44,0,0,1,5.28.83Z" transform="translate(-44.1 -39.45)"/><path d="M155.45,130.79h-4.28v3.57h-2.6V124h6.84c2,0,3.82,1.09,3.82,3.42A3.53,3.53,0,0,1,155.45,130.79Zm-0.13-4.61h-4.15v2.38h4.19a1.19,1.19,0,0,0,1.26-1.19A1.17,1.17,0,0,0,155.32,126.18Z" transform="translate(-44.1 -39.45)"/><path d="M169,134.36l-1.06-2.23h-5l-1.06,2.23H159L164,124h2.75l5.07,10.41H169Zm-3.55-7.85L163.83,130H167Z" transform="translate(-44.1 -39.45)"/><path d="M182.3,134.36l-2.41-3.57h-3.33v3.57H174V124h7.14c2.11,0,3.82,1.17,3.82,3.42a3.29,3.29,0,0,1-2.2,3.12l2.63,3.87h-3ZM181,126.18h-4.45v2.38H181a1.19,1.19,0,0,0,1.26-1.19A1.18,1.18,0,0,0,181,126.18Z" transform="translate(-44.1 -39.45)"/><path d="M187.66,134.36V124h2.6v10.41h-2.6Z" transform="translate(-44.1 -39.45)"/><path d="M198.5,134.56c-2.48,0-5.09-.52-5.72-3.21l2.45-.61c0.37,1.29,1.47,1.65,3.55,1.65,1.63,0,2.62-.34,2.62-1.18,0-2-8.3.15-8.3-4.09,0-2.6,2.8-3.36,5.18-3.36s4.73,0.43,5.62,3l-2.5.61c-0.39-1.1-1.55-1.47-3.17-1.47-1.06,0-2.5.21-2.5,1.12,0,2.2,8.31,0,8.31,4.13C204.05,134.14,201,134.56,198.5,134.56Z" transform="translate(-44.1 -39.45)"/></svg>