<svg data-name="Layer 1" xmlns="http://www.w3.org/2000/svg" viewBox="0 0 268 95.11"><title>cander-logo</title><path d="M22.57 51.55C10.35 51.55 0 45.35 0 32.01s10.42-19.86 22.57-19.86c9.45 0 17.85 3.26 21.25 12.78L35 27.29c-1.95-5.42-7.15-7.5-12.43-7.5-7.78 0-13.26 4.1-13.26 12.29s5.76 11.88 13.26 11.88c5.63 0 10.83-1.88 12.64-7.78l8.89 2.37c-3.2 10-11.88 13-21.53 13zm57.5-.86v-4.14c-4.31 3.61-9.24 5-15.63 5-10.27 0-17.84-2.73-17.84-11.48 0-7.36 5.69-11.32 15.9-11.32h17.57v-1.6c0-5.9-6.74-7.36-11.32-7.36-6 0-10.28 1.11-12.29 5.35l-8.13-2.15c3.13-8.75 11.95-10.83 20.42-10.83 9.51 0 20.35 3.4 20.35 14.86v23.67h-9zm-16.94-15.7c-3.19 0-7.29.35-7.29 4.58 0 3.82 4.72 4.38 7.57 4.38h2.71c9.1 0 14-3.13 14-9H63.13zm66.04 15.7V30.35c0-7.78-4.51-10.56-11.25-10.56-7.78 0-13.54 4.65-13.54 12.29v18.61h-9V13.05h9v4.72a20.07 20.07 0 0 1 14.58-5.63c11.74 0 19.24 4.93 19.24 18.13v20.42h-9zm34.45-38.54a20.93 20.93 0 0 1 15.07 5.76V0h9v50.7h-9v-4.59c-3.79 3.89-8.06 5.44-14.93 5.44-11.74 0-21.18-5.76-21.18-19.58 0-13.57 9.32-19.82 21.04-19.82zm1.74 31.81c7.29 0 13.33-4.31 13.33-11.88 0-7.78-5.76-12.29-13.33-12.29-7.78 0-13.4 4-13.4 12.29s5.94 11.88 13.4 11.88zM236.9 35h-35.5c.7 6.46 7.08 9.1 13.2 9.1 5.07 0 11.11-.76 13.4-6.11l8.47 2c-3.57 9.56-12.71 11.56-21.87 11.56-13.26 0-22.64-6.25-22.64-19.51 0-12.71 10.49-19.93 22.57-19.93 12.57 0 22.36 6.88 22.36 20v2.85zm-9.86-6.25C225.58 22.5 220.51 20 214.4 20c-5.9 0-11.32 2.5-12.92 8.75h25.56zm38.95-8.27a10.34 10.34 0 0 0-3.82-.69c-6.67 0-11.67 2.85-11.67 10.56v20.34h-9V13.05h9v4.44A16 16 0 0 1 262.72 12a19.44 19.44 0 0 1 5.28.83zM111.35 91.34h-4.28v3.57h-2.6V84.55h6.84c2 0 3.82 1.09 3.82 3.42a3.53 3.53 0 0 1-3.78 3.37zm-.13-4.61h-4.15v2.38h4.19a1.19 1.19 0 0 0 1.26-1.19 1.17 1.17 0 0 0-1.3-1.19zm13.68 8.18l-1.06-2.23h-5l-1.06 2.23h-2.88l5-10.36h2.75l5.07 10.41h-2.82zm-3.55-7.85l-1.62 3.49h3.17zm16.85 7.85l-2.41-3.57h-3.33v3.57h-2.56V84.55h7.14c2.11 0 3.82 1.17 3.82 3.42a3.29 3.29 0 0 1-2.2 3.12l2.63 3.87h-3zm-1.3-8.18h-4.45v2.38h4.45a1.19 1.19 0 0 0 1.26-1.19 1.18 1.18 0 0 0-1.26-1.19zm6.66 8.18V84.55h2.6v10.41h-2.6zm10.84.2c-2.48 0-5.09-.52-5.72-3.21l2.45-.61c.37 1.29 1.47 1.65 3.55 1.65 1.63 0 2.62-.34 2.62-1.18 0-2-8.3.15-8.3-4.09 0-2.6 2.8-3.36 5.18-3.36s4.73.43 5.62 3l-2.5.61c-.39-1.1-1.55-1.47-3.17-1.47-1.06 0-2.5.21-2.5 1.12 0 2.2 8.31 0 8.31 4.13.01 2.99-3.04 3.41-5.54 3.41z"/></svg>